<svg xmlns="http://www.w3.org/2000/svg" viewBox="0 0 742.03 217.98"><g id="Capa_2" data-name="Capa 2"><g id="Capa_1-2" data-name="Capa 1"><path d="M467.11,102.76q-2-8.66-11-8.51-6.28.12-9.15,4.75a20.07,20.07,0,0,0-2.89,11.2,26.92,26.92,0,0,0,.62,5.83,16.75,16.75,0,0,0,2,5.2q2.72,5,9.69,5.1a10,10,0,0,0,7.3-2.86,13.64,13.64,0,0,0,3.73-7h3.43a17.13,17.13,0,0,1-4.59,8.9q-3.56,3.75-10.53,3.85-8-.15-11.53-5.7a23.22,23.22,0,0,1-3.51-13.21q.06-10.25,4.67-14.63A15.82,15.82,0,0,1,457,91.37q11.29.06,13.54,11.39Z"/><path d="M487.93,129a10.88,10.88,0,0,1-8.16-3.51q-3.37-3.39-3.43-10.12a15.64,15.64,0,0,1,2.91-9.7q2.89-3.82,8.68-3.92,5.85.09,8.76,3.92a15.87,15.87,0,0,1,2.85,9.7q0,6.24-3.14,9.82A10.51,10.51,0,0,1,487.93,129Zm8.55-13.62a13.92,13.92,0,0,0-2-7.81q-2-3.09-6.6-3.14c-3,.06-5.21,1.18-6.53,3.34a14.23,14.23,0,0,0-2,7.61,12.73,12.73,0,0,0,2.22,7.84,7.3,7.3,0,0,0,6.3,3.1c3.05,0,5.25-1.17,6.6-3.39A14.39,14.39,0,0,0,496.48,115.34Z"/><path d="M508.63,128.25h-2.87V102.39h2.87V106a14.57,14.57,0,0,1,3.64-3.13,8.43,8.43,0,0,1,4.44-1.14,8.78,8.78,0,0,1,7.65,3.68,6.42,6.42,0,0,1,1.1,2.8c.09,1,.14,2,.14,3.14v16.92h-2.87V111.38q.09-7-6.48-7a6.87,6.87,0,0,0-4.47,1.51,8.31,8.31,0,0,0-2.51,3.54,16.2,16.2,0,0,0-.64,4.9Z"/><path d="M535.18,120.17q1.16,6.26,7.52,6.11a6.69,6.69,0,0,0,4.69-1.49,4.3,4.3,0,0,0,1.51-3.32,3.83,3.83,0,0,0-.64-2.29,4.33,4.33,0,0,0-1.84-1.39,5,5,0,0,0-1.16-.52,11,11,0,0,0-1.39-.39l-3-.58c-.49-.18-1-.33-1.42-.47a10.31,10.31,0,0,1-1.44-.39,10.83,10.83,0,0,1-2.62-1.19,5.94,5.94,0,0,1-1.84-2,6.31,6.31,0,0,1-.71-3.1,6.7,6.7,0,0,1,2.36-5.34,9.52,9.52,0,0,1,6.42-2.05q8.37-.18,9.67,8.13h-2.95a5.78,5.78,0,0,0-2.18-4.26,8.34,8.34,0,0,0-4.6-1.19q-5.61.14-5.65,4.43a3,3,0,0,0,.73,2.1,5.2,5.2,0,0,0,1.82,1.36,27.66,27.66,0,0,0,5.48,1.69c1,.24,2,.52,3,.85a9.64,9.64,0,0,1,2.55,1.34,5.85,5.85,0,0,1,1.84,2.1,6.86,6.86,0,0,1,.64,3.14,6.45,6.45,0,0,1-2.85,5.61,12.76,12.76,0,0,1-7.34,2,9.13,9.13,0,0,1-6.86-2.61,9.25,9.25,0,0,1-2.66-6.18Z"/><path d="M560.23,116a11.87,11.87,0,0,0,2.13,7.21,7.33,7.33,0,0,0,6.31,3.06c4,0,6.51-2,7.59-6h3.23a12.87,12.87,0,0,1-3.51,6.14c-1.72,1.64-4.15,2.47-7.3,2.51q-5.94-.11-8.75-4a15.24,15.24,0,0,1-2.76-9.58,15.21,15.21,0,0,1,3.09-9.75,10.26,10.26,0,0,1,8.42-4q10.67.09,11,14.3Zm16.38-2.48a10.24,10.24,0,0,0-2-6.49,7.92,7.92,0,0,0-11.87,0,12.59,12.59,0,0,0-2.53,6.44Z"/><path d="M589.26,128.25h-2.87V102.39h2.87v4.83h.1a8.68,8.68,0,0,1,3.14-4.32,9.47,9.47,0,0,1,5-1.19v3.21q-4.8,0-6.58,3.06a14.88,14.88,0,0,0-1.7,7.59Z"/><path d="M600.21,102.39h3.14l8.12,22.16,8.11-22.16h3.15L613,128.25h-3.23Z"/><path d="M639.33,113.19c.58-.08,1.24-.19,2-.32a13.72,13.72,0,0,0,1.84-.54,1.9,1.9,0,0,0,.92-1.19,8.29,8.29,0,0,0,.15-1.51,5.18,5.18,0,0,0-1.42-3.78q-1.44-1.41-4.85-1.46a8.59,8.59,0,0,0-4.91,1.19c-1.27.88-2.06,2.43-2.39,4.66h-3q.45-4.56,3.31-6.61a12.17,12.17,0,0,1,7-1.92,11.3,11.3,0,0,1,6.47,1.73q2.55,1.84,2.62,6.29v14.08c-.05,1.12.15,1.84.61,2.15s1.24.27,2.44-.15v2.34c-.21.07-.51.15-.92.25a4.06,4.06,0,0,1-1.36.24,5.55,5.55,0,0,1-1.29-.15,2.32,2.32,0,0,1-1.84-1.38,7.33,7.33,0,0,1-.47-2.42,12.23,12.23,0,0,1-9.35,4.27,9.12,9.12,0,0,1-5.79-1.9,6.45,6.45,0,0,1-2.57-5.53q0-6.56,8.74-7.8Zm4.9,1.5a18.65,18.65,0,0,1-3.74,1,32.85,32.85,0,0,1-3.79.44q-7,.41-7.08,5.51a4,4,0,0,0,1.71,3.44,6.08,6.08,0,0,0,3.74,1.2,11,11,0,0,0,6.34-1.86,6.53,6.53,0,0,0,2.82-5.68Z"/><path d="M673.3,110.54q-1.6-6.06-7.44-6.15a7.06,7.06,0,0,0-6.4,3.44,13.69,13.69,0,0,0-2,7.56,14,14,0,0,0,2,7.45c1.32,2.23,3.47,3.37,6.44,3.44q6.57-.11,7.68-7h3.09a12,12,0,0,1-3.37,6.94,10.24,10.24,0,0,1-7.38,2.7q-5.91-.11-8.71-4a15.81,15.81,0,0,1-2.81-9.63,15.52,15.52,0,0,1,3-9.6q2.89-4,8.52-4.07,8.82-.08,10.37,8.83Z"/><path d="M683.63,96.76V92.32h3.17v4.44Zm.15,31.49V102.39h2.88v25.86Z"/><path d="M704.36,129a10.9,10.9,0,0,1-8.16-3.51q-3.37-3.39-3.42-10.12a15.7,15.7,0,0,1,2.9-9.7q2.9-3.82,8.68-3.92c3.91.06,6.82,1.37,8.76,3.92a15.87,15.87,0,0,1,2.86,9.7q-.06,6.24-3.14,9.82A10.53,10.53,0,0,1,704.36,129Zm8.55-13.62a14,14,0,0,0-1.94-7.81q-2-3.09-6.61-3.14c-3,.06-5.2,1.18-6.53,3.34a14.32,14.32,0,0,0-2,7.61,12.67,12.67,0,0,0,2.23,7.84,7.3,7.3,0,0,0,6.29,3.1c3,0,5.25-1.17,6.61-3.39A14.48,14.48,0,0,0,712.91,115.34Zm-10.8-15.73,5.37-6.92h3.69l-6.59,6.92Z"/><path d="M725.07,128.25h-2.88V102.39h2.88V106a14.36,14.36,0,0,1,3.63-3.13,8.43,8.43,0,0,1,4.44-1.14,8.76,8.76,0,0,1,7.65,3.68,6.3,6.3,0,0,1,1.1,2.8c.09,1,.14,2,.14,3.14v16.92h-2.87V111.38q.09-7-6.48-7a6.91,6.91,0,0,0-4.47,1.51,8.4,8.4,0,0,0-2.51,3.54,16.2,16.2,0,0,0-.63,4.9Z"/><path d="M445.17,188h-2.88V152h2.88v4.54h.09a9.47,9.47,0,0,1,3.82-3.93A10.23,10.23,0,0,1,454,151.3q6,0,8.75,3.88a16.89,16.89,0,0,1,2.57,9.7,16.31,16.31,0,0,1-2.71,9.48q-2.76,4.09-8.45,4.19a10.64,10.64,0,0,1-5.1-1.31,9.23,9.23,0,0,1-3.84-3.52Zm0-23a12.59,12.59,0,0,0,2.27,7.59,7.24,7.24,0,0,0,6.2,3.24,7.5,7.5,0,0,0,6.7-3.49,13.38,13.38,0,0,0,1.87-8.25c-.07-3.27-.87-5.78-2.42-7.54a7.92,7.92,0,0,0-6.15-2.61,7.2,7.2,0,0,0-6.25,3.15A13.24,13.24,0,0,0,445.17,165Z"/><path d="M484,162.78c.58-.08,1.24-.19,2-.32a15,15,0,0,0,1.84-.53,2,2,0,0,0,.93-1.2,9.12,9.12,0,0,0,.14-1.51,5.18,5.18,0,0,0-1.42-3.78Q486,154,482.58,154a8.75,8.75,0,0,0-4.91,1.19q-1.89,1.32-2.39,4.66h-3q.45-4.56,3.31-6.6a12.1,12.1,0,0,1,7-1.93A11.36,11.36,0,0,1,489.1,153c1.7,1.24,2.57,3.33,2.62,6.29v14.09c-.05,1.12.16,1.83.61,2.14s1.24.28,2.44-.14v2.34l-.92.24a4.06,4.06,0,0,1-1.36.24,6.14,6.14,0,0,1-1.29-.14,2.36,2.36,0,0,1-1.84-1.38,7.45,7.45,0,0,1-.47-2.43,12.17,12.17,0,0,1-9.35,4.27,9.06,9.06,0,0,1-5.79-1.9,6.44,6.44,0,0,1-2.57-5.53q0-6.56,8.74-7.79Zm4.9,1.5a18.65,18.65,0,0,1-3.74,1,30.78,30.78,0,0,1-3.79.44q-7,.42-7.08,5.51a4,4,0,0,0,1.71,3.45,6.14,6.14,0,0,0,3.74,1.19A11,11,0,0,0,486,174a6.54,6.54,0,0,0,2.82-5.69Z"/><path d="M509,178c-.34.06-.79.16-1.34.29a8.39,8.39,0,0,1-2,.31,4.21,4.21,0,0,1-3.2-1.15,5.5,5.5,0,0,1-1.21-4V154.47h-3.54V152h3.54v-7.19h2.87V152h4.68v2.49H504.1v17.76a6.08,6.08,0,0,0,.4,2.74c.25.6,1,.9,2.12.9a8.15,8.15,0,0,0,2.35-.34Z"/><path d="M517.09,177.84h-2.87V152h2.87v4.84h.11a8.65,8.65,0,0,1,3.14-4.33,9.53,9.53,0,0,1,5-1.19v3.22c-3.19,0-5.39,1-6.58,3a14.92,14.92,0,0,0-1.7,7.6Z"/><path d="M531,146.35v-4.43h3.16v4.43Zm.15,31.49V152H534v25.86Z"/><path d="M543.78,177.84h-2.87V152h2.88v3.88h.09a8.78,8.78,0,0,1,8-4.56q3.54,0,5.2,1.44a8.11,8.11,0,0,1,2.39,3.53,9,9,0,0,1,8.43-5,9.38,9.38,0,0,1,4.29.83,5.58,5.58,0,0,1,2.39,2.32,10.18,10.18,0,0,1,1.12,3.24,30,30,0,0,1,.24,3.82v16.33h-2.87V160a7.32,7.32,0,0,0-1.16-4.39q-1.2-1.6-4.43-1.61a7.33,7.33,0,0,0-5.9,3,7.8,7.8,0,0,0-1.31,3.29,17.66,17.66,0,0,0-.42,3.71v13.91H557V160a7.39,7.39,0,0,0-1.15-4.39q-1.22-1.6-4.43-1.61a7.34,7.34,0,0,0-5.89,3,8.28,8.28,0,0,0-1.33,3.29,19,19,0,0,0-.39,3.71Z"/><path d="M593.3,178.55a10.85,10.85,0,0,1-8.17-3.51q-3.37-3.39-3.42-10.11a15.68,15.68,0,0,1,2.9-9.7c1.94-2.56,4.83-3.86,8.69-3.93s6.82,1.37,8.75,3.93a15.79,15.79,0,0,1,2.86,9.7q0,6.24-3.14,9.82A10.51,10.51,0,0,1,593.3,178.55Zm8.54-13.61a13.82,13.82,0,0,0-1.94-7.81q-2-3.1-6.6-3.15-4.54.11-6.54,3.34a14.37,14.37,0,0,0-2,7.62,12.72,12.72,0,0,0,2.22,7.83,7.28,7.28,0,0,0,6.3,3.1q4.56,0,6.6-3.39A14.37,14.37,0,0,0,601.84,164.94Z"/><path d="M614,177.84h-2.87V152H614v3.59a14.4,14.4,0,0,1,3.64-3.13,8.43,8.43,0,0,1,4.44-1.14,8.81,8.81,0,0,1,7.65,3.68,6.45,6.45,0,0,1,1.09,2.8c.1,1,.14,2,.14,3.15v16.91h-2.87V161q.1-7-6.48-7a6.92,6.92,0,0,0-4.46,1.51,8.31,8.31,0,0,0-2.51,3.54,16.2,16.2,0,0,0-.64,4.9Z"/><path d="M639.18,146.35v-4.43h3.17v4.43Zm.15,31.49V152h2.87v25.86Z"/><path d="M661.48,162.78c.59-.08,1.25-.19,2-.32a15.15,15.15,0,0,0,1.85-.53,1.94,1.94,0,0,0,.92-1.2,9.12,9.12,0,0,0,.14-1.51,5.14,5.14,0,0,0-1.42-3.78q-1.44-1.41-4.84-1.46a8.76,8.76,0,0,0-4.92,1.19q-1.89,1.32-2.39,4.66h-2.95q.45-4.56,3.3-6.6a12.15,12.15,0,0,1,7-1.93,11.4,11.4,0,0,1,6.47,1.73c1.69,1.24,2.57,3.33,2.61,6.29v14.09c0,1.12.16,1.83.62,2.14s1.23.28,2.43-.14v2.34l-.91.24a4.12,4.12,0,0,1-1.37.24,6.21,6.21,0,0,1-1.29-.14,2.36,2.36,0,0,1-1.83-1.38,7.45,7.45,0,0,1-.47-2.43,12.18,12.18,0,0,1-9.35,4.27,9,9,0,0,1-5.79-1.9,6.42,6.42,0,0,1-2.58-5.53q0-6.56,8.75-7.79Zm4.9,1.5a18.47,18.47,0,0,1-3.74,1,30.4,30.4,0,0,1-3.78.44q-7,.42-7.08,5.51a4,4,0,0,0,1.7,3.45,6.16,6.16,0,0,0,3.74,1.19,11.06,11.06,0,0,0,6.35-1.85,6.51,6.51,0,0,0,2.81-5.69Z"/><path d="M678.18,177.84V141.92h2.87v35.92Z"/><path d="M147.42,97.32a40,40,0,0,0-36.84,0q-8.26,4.5-13.16,14.13t-4.9,25q0,15.42,4.9,25a32,32,0,0,0,13.16,14,39.95,39.95,0,0,0,36.84,0q8.19-4.49,13.08-14t4.9-25q0-15.41-4.9-25T147.42,97.32ZM144,167.4q-5.86,9.39-15,9.39t-15-9.39q-5.86-9.41-5.86-30.91t5.86-31Q119.82,96,129,96t15,9.47q5.86,9.48,5.86,31T144,167.4Z"/><path d="M238.6,95.56c-1.6,0-3.07,0-4.41-.08l-4.09-.16-5-.24v3.21c3.85.21,6.74.86,8.67,1.92a6.09,6.09,0,0,1,3.29,4.74q.39,3.14-1.69,8.43l-17.77,46.44-19.31-47.89q-2.73-6.74-1.93-9.55A4.59,4.59,0,0,1,200.32,99a41.05,41.05,0,0,1,7.14-.56V95.08c-3.21.21-6.66.43-10.35.64s-7.2.32-10.52.32q-4.5,0-8.35-.24c-2.56-.16-5-.4-7.38-.72v3.37a12.45,12.45,0,0,1,4.9,1.36q3,1.36,6,7.63l29.11,70.09-5.68,14.67q-2.57,6.57-5.94,9.55a11.3,11.3,0,0,1-7.7,3h-.4a1.37,1.37,0,0,1-.56-.16,9.28,9.28,0,0,0,3-2.73,7.5,7.5,0,0,0,1.28-4.49,6.74,6.74,0,0,0-2.41-5.62,8.92,8.92,0,0,0-5.78-1.93,8.28,8.28,0,0,0-6.26,2.33,8.51,8.51,0,0,0-2.25,6.18,9.24,9.24,0,0,0,1.45,5.22,9.13,9.13,0,0,0,3.93,3.29,13.47,13.47,0,0,0,5.54,1.12,27.05,27.05,0,0,0,6.42-.88,13.65,13.65,0,0,0,6.1-3.29,20.86,20.86,0,0,0,3.61-4.5,43.78,43.78,0,0,0,3.29-6.74l5.46-14,26.33-69q2.25-6.09,4.82-8.5a9.52,9.52,0,0,1,5.61-2.73V95.08l-5.53.32Q242.29,95.57,238.6,95.56Z"/><path d="M315.66,166.67a22.27,22.27,0,0,1-8,5.06,27.29,27.29,0,0,1-9.15,1.53,20,20,0,0,1-11.8-4.1,28.81,28.81,0,0,1-9.23-12q-3.52-7.86-3.53-18.78c0-1.93.06-3.85.16-5.78.09-1.61.22-3.11.39-4.49h50.18q0-18.15-7.95-26.73t-22.07-8.59a33.21,33.21,0,0,0-19.1,5.54,35.81,35.81,0,0,0-12.68,15.73q-4.5,10.2-4.5,24.32A50.11,50.11,0,0,0,262.77,160a34.28,34.28,0,0,0,12.68,14.69q8.26,5.3,19.82,5.3a30.21,30.21,0,0,0,24.24-11.24,33.05,33.05,0,0,0,5.78-10.27l-3.21-1.29A30.59,30.59,0,0,1,315.66,166.67Zm-34.75-63.41q5.68-7.38,13.08-7.38a11.22,11.22,0,0,1,8.91,4A25.32,25.32,0,0,1,308,110.57a53.26,53.26,0,0,1,1.28,14.53h-35Q275.5,110.28,280.91,103.26Z"/><path d="M399.54,99.17a13.87,13.87,0,0,0-5.14-4.57,15.86,15.86,0,0,0-7.63-1.77A17.72,17.72,0,0,0,376.5,96a31.29,31.29,0,0,0-7.95,7.95,43.63,43.63,0,0,0-5.05,9.39V93.31A45.74,45.74,0,0,1,355.71,95a68.83,68.83,0,0,1-8.91.56q-4.82,0-9.95-.48v3.37q7.06,0,9.63,3.45t2.57,10.67v50.25q0,6.75-2.81,9.15t-9.39,2.41v3.37q2.73-.17,8.11-.4t10.83-.24q7.54,0,14.29.24t10.43.4v-3.37q-7.86,0-12.44-2.65t-4.57-10.51v-34a33.17,33.17,0,0,1,1.6-9.71,41.9,41.9,0,0,1,4.5-9.87,26.27,26.27,0,0,1,7.06-7.63,15.45,15.45,0,0,1,9.15-3,3.84,3.84,0,0,1,3.37,1.61,14.37,14.37,0,0,0-3.77,3.45,8.25,8.25,0,0,0-1.68,5.22,7.63,7.63,0,0,0,2.57,6.18,8.92,8.92,0,0,0,5.93,2.16,8.17,8.17,0,0,0,6.67-3.05,10.86,10.86,0,0,0,2.48-7.06A11.29,11.29,0,0,0,399.54,99.17Z"/><path d="M114.78,61.58H82.2C89.34,22.91,98.45,5.42,112.25,5.42c3.2,0,5.42,1.23,5.42,2.95S115.2,12.31,115.2,16c0,5.91,3.7,9.85,9.12,9.85A10.15,10.15,0,0,0,134.66,16c0-9.11-9.11-16-21.18-16-30,0-36.14,35.22-44.27,61.58H46.55l-1.72,3.89H67L45.32,172.91c-5.42,26.35-13.55,39.9-23.89,39.9-3,0-4.93-1.72-4.93-3.94,0-2.46,2.22-3,2.22-6.65a9.57,9.57,0,0,0-9.61-9.36C3.94,192.86,0,197.29,0,203c0,8.37,8.62,15,19.46,15,21.92,0,33.18-24.38,43.28-69.7L80.47,65.47H113.3Z"/></g></g></svg>