<svg xmlns="http://www.w3.org/2000/svg" viewBox="0 0 760.34 217.98"><defs><style>.cls-1{font-size:49.92px;font-family:Helvetica-Light, Helvetica Light;font-weight:300;}.cls-1,.cls-2{fill:#fff;}</style></defs><g id="Capa_2" data-name="Capa 2"><g id="Capa_1-2" data-name="Capa 1"><text class="cls-1" transform="translate(438.47 128.25)">Conservación <tspan x="0" y="49.59">patrimonial</tspan></text><path class="cls-2" d="M147.42,97.32a40,40,0,0,0-36.84,0q-8.26,4.5-13.16,14.13t-4.9,25q0,15.42,4.9,25a32,32,0,0,0,13.16,14,39.95,39.95,0,0,0,36.84,0q8.19-4.49,13.08-14t4.9-25q0-15.41-4.9-25T147.42,97.32ZM144,167.4q-5.86,9.39-15,9.39t-15-9.39q-5.86-9.41-5.86-30.91t5.86-31Q119.82,96,129,96t15,9.47q5.86,9.48,5.86,31T144,167.4Z"/><path class="cls-2" d="M238.6,95.56c-1.6,0-3.07,0-4.41-.08l-4.09-.16-5-.24v3.21c3.85.21,6.74.86,8.67,1.92a6.09,6.09,0,0,1,3.29,4.74q.39,3.14-1.69,8.43l-17.77,46.44-19.31-47.89q-2.73-6.74-1.93-9.55A4.59,4.59,0,0,1,200.32,99a41.05,41.05,0,0,1,7.14-.56V95.08c-3.21.21-6.66.43-10.35.64s-7.2.32-10.52.32q-4.5,0-8.35-.24c-2.56-.16-5-.4-7.38-.72v3.37a12.45,12.45,0,0,1,4.9,1.36q3,1.36,6,7.63l29.11,70.09-5.68,14.67q-2.57,6.57-5.94,9.55a11.3,11.3,0,0,1-7.7,3h-.4a1.37,1.37,0,0,1-.56-.16,9.28,9.28,0,0,0,3-2.73,7.5,7.5,0,0,0,1.28-4.49,6.74,6.74,0,0,0-2.41-5.62,8.92,8.92,0,0,0-5.78-1.93,8.28,8.28,0,0,0-6.26,2.33,8.51,8.51,0,0,0-2.25,6.18,9.24,9.24,0,0,0,1.45,5.22,9.13,9.13,0,0,0,3.93,3.29,13.47,13.47,0,0,0,5.54,1.12,27.05,27.05,0,0,0,6.42-.88,13.65,13.65,0,0,0,6.1-3.29,20.86,20.86,0,0,0,3.61-4.5,43.78,43.78,0,0,0,3.29-6.74l5.46-14,26.33-69q2.25-6.09,4.82-8.5a9.52,9.52,0,0,1,5.61-2.73V95.08l-5.53.32Q242.29,95.57,238.6,95.56Z"/><path class="cls-2" d="M315.66,166.67a22.27,22.27,0,0,1-8,5.06,27.29,27.29,0,0,1-9.15,1.53,20,20,0,0,1-11.8-4.1,28.81,28.81,0,0,1-9.23-12q-3.52-7.86-3.53-18.78c0-1.93.06-3.85.16-5.78.09-1.61.22-3.11.39-4.49h50.18q0-18.15-7.95-26.73t-22.07-8.59a33.21,33.21,0,0,0-19.1,5.54,35.81,35.81,0,0,0-12.68,15.73q-4.5,10.2-4.5,24.32A50.11,50.11,0,0,0,262.77,160a34.28,34.28,0,0,0,12.68,14.69q8.26,5.3,19.82,5.3a30.21,30.21,0,0,0,24.24-11.24,33.05,33.05,0,0,0,5.78-10.27l-3.21-1.29A30.59,30.59,0,0,1,315.66,166.67Zm-34.75-63.41q5.68-7.38,13.08-7.38a11.22,11.22,0,0,1,8.91,4A25.32,25.32,0,0,1,308,110.57a53.26,53.26,0,0,1,1.28,14.53h-35Q275.5,110.28,280.91,103.26Z"/><path class="cls-2" d="M399.54,99.17a13.87,13.87,0,0,0-5.14-4.57,15.86,15.86,0,0,0-7.63-1.77A17.72,17.72,0,0,0,376.5,96a31.29,31.29,0,0,0-7.95,7.95,43.63,43.63,0,0,0-5.05,9.39V93.31A45.74,45.74,0,0,1,355.71,95a68.83,68.83,0,0,1-8.91.56q-4.82,0-9.95-.48v3.37q7.06,0,9.63,3.45t2.57,10.67v50.25q0,6.75-2.81,9.15t-9.39,2.41v3.37q2.73-.17,8.11-.4t10.83-.24q7.54,0,14.29.24t10.43.4v-3.37q-7.86,0-12.44-2.65t-4.57-10.51v-34a33.17,33.17,0,0,1,1.6-9.71,41.9,41.9,0,0,1,4.5-9.87,26.27,26.27,0,0,1,7.06-7.63,15.45,15.45,0,0,1,9.15-3,3.84,3.84,0,0,1,3.37,1.61,14.37,14.37,0,0,0-3.77,3.45,8.25,8.25,0,0,0-1.68,5.22,7.63,7.63,0,0,0,2.57,6.18,8.92,8.92,0,0,0,5.93,2.16,8.17,8.17,0,0,0,6.67-3.05,10.86,10.86,0,0,0,2.48-7.06A11.29,11.29,0,0,0,399.54,99.17Z"/><path class="cls-2" d="M114.78,61.58H82.2C89.34,22.91,98.45,5.42,112.25,5.42c3.2,0,5.42,1.23,5.42,2.95S115.2,12.31,115.2,16c0,5.91,3.7,9.85,9.12,9.85A10.15,10.15,0,0,0,134.66,16c0-9.11-9.11-16-21.18-16-30,0-36.14,35.22-44.27,61.58H46.55l-1.72,3.89H67L45.32,172.91c-5.42,26.35-13.55,39.9-23.89,39.9-3,0-4.93-1.72-4.93-3.94,0-2.46,2.22-3,2.22-6.65a9.57,9.57,0,0,0-9.61-9.36C3.94,192.86,0,197.29,0,203c0,8.37,8.62,15,19.46,15,21.92,0,33.18-24.38,43.28-69.7L80.47,65.47H113.3Z"/></g></g></svg>